<?xml version="1.0"?>
<svg xmlns="http://www.w3.org/2000/svg" viewBox="0 0 40.77 40.77" className="logo">
  <title>eyeson Logo</title>
  <g id="eyeson-logo">
    <path d="M20.38,40.34a20,20,0,1,1,20-20,20,20,0,0,1-20,20" fill="#fff"/>
    <path d="M20.38.86A19.53,19.53,0,1,1,.86,20.38,19.52,19.52,0,0,1,20.38.86m0-.86A20.38,20.38,0,1,0,40.77,20.38,20.41,20.41,0,0,0,20.38,0" fill="#fff"/>
    <path d="M20.38,6A14.39,14.39,0,1,1,6,20.38,14.4,14.4,0,0,1,20.38,6m0-5.14A19.53,19.53,0,1,0,39.91,20.38,19.53,19.53,0,0,0,20.38.86" fill="#fff"/>
    <path d="M5.81,20.38A14.58,14.58,0,1,0,20.48,5.8a4.62,4.62,0,0,1,3,2.9c.82,2.73-1.43,5.82-5,6.91s-7.2-.22-8-2.94a4.38,4.38,0,0,1,.33-3.18A14.54,14.54,0,0,0,5.81,20.38" fill="#9e216c"/>
  </g>
</svg>
