<?xml version="1.0" encoding="utf-8"?>
<!-- Generator: Adobe Illustrator 27.1.1, SVG Export Plug-In . SVG Version: 6.00 Build 0)  -->
<svg version="1.1" id="Ebene_1" xmlns="http://www.w3.org/2000/svg" xmlns:xlink="http://www.w3.org/1999/xlink" x="0px" y="0px"
	 viewBox="0 0 40.8 40.8" style="enable-background:new 0 0 40.8 40.8;" xml:space="preserve">
<path d="M20.4,0C9.1,0,0,9.1,0,20.4s9.1,20.4,20.4,20.4c11.2,0,20.4-9.1,20.4-20.4S31.6,0,20.4,0L20.4,0z M20.4,35
	c-8,0.1-14.6-6.4-14.6-14.4c0-4.3,1.8-8.3,5-11.1c-0.5,1-0.6,2.1-0.3,3.2c0.8,2.7,4.4,4,8,2.9s5.8-4.2,5-6.9c-0.5-1.4-1.6-2.5-3-2.9
	c8.1,0,14.6,6.6,14.6,14.6C35,28.5,28.5,35,20.4,35L20.4,35z"/>
</svg>
